<?xml version="1.0" encoding="UTF-8"?>
<svg version="1.1" xmlns="http://www.w3.org/2000/svg" width="512" height="512">
<path d="M0 0 C2.17754974 -0.00570895 4.35509648 -0.01267524 6.53263855 -0.02079773 C12.42321147 -0.03868654 18.31363508 -0.03756872 24.20422697 -0.03185534 C29.1319703 -0.02875718 34.05968521 -0.03486296 38.98742449 -0.04089409 C50.61777987 -0.0549238 62.24806176 -0.05339106 73.87841797 -0.04199219 C85.8544242 -0.03051351 97.83012776 -0.04458603 109.80611742 -0.07138866 C120.10965781 -0.09358015 130.41312807 -0.10017523 140.71669066 -0.09431225 C146.86113262 -0.09094963 153.00543102 -0.0933116 159.14985275 -0.11056328 C164.93005692 -0.12608516 170.70993049 -0.12201859 176.49012184 -0.10325813 C178.60357032 -0.09958672 180.71704358 -0.10263815 182.83046913 -0.11314392 C200.49439881 -0.19420343 217.09323487 1.93497747 230.73681641 14.52905273 C244.2769603 29.03634976 248.79862108 44.02469754 248.76147461 63.4699707 C248.76582959 64.87215443 248.77101535 66.27433579 248.77696228 67.67651367 C248.79027925 71.46174969 248.79093913 75.2468854 248.78839898 79.03214025 C248.78732425 82.20284191 248.79222542 85.37352368 248.7970044 88.54422104 C248.80807442 96.03022844 248.80855119 103.51618565 248.80249023 111.00219727 C248.79645254 118.70084614 248.80876197 126.39931215 248.8300603 134.09792984 C248.84772725 140.73008724 248.85366965 147.36218672 248.85042256 153.99436677 C248.8486176 157.94559402 248.85116657 161.89669083 248.8651371 165.84789658 C248.87779408 169.56626036 248.87569784 173.28434093 248.86272621 177.00270081 C248.85926685 179.00080111 248.87048021 180.99891039 248.8822937 182.99697876 C248.78923949 199.0990321 243.48351255 214.36462746 232.12744141 226.08764648 C219.66645879 237.01865639 205.91375889 242.45809412 189.26025391 242.41967773 C187.99358887 242.41742188 186.72692383 242.41516602 185.421875 242.4128418 C183.969021 242.40849121 183.969021 242.40849121 182.48681641 242.40405273 C182.50776367 243.6845752 182.52871094 244.96509766 182.55029297 246.28442383 C182.62315975 251.07402184 182.66878487 255.86357169 182.70654297 260.65356445 C182.72655266 262.71940372 182.75376923 264.78518711 182.78857422 266.85083008 C182.83756357 269.83485776 182.85989205 272.81813119 182.87744141 275.80249023 C182.89808655 276.71332367 182.91873169 277.6241571 182.94000244 278.56259155 C182.94275836 286.59121634 180.68491368 292.97760699 176.36181641 299.71655273 C170.2113574 305.46589485 162.28732028 308.88121457 153.81103516 308.66186523 C143.59166085 307.52828758 137.21969122 302.06122493 130.17480469 295.0637207 C127.08930717 292.02999029 123.90283316 289.10322435 120.73681641 286.15405273 C119.53302664 285.02455247 118.32993097 283.89431212 117.12744141 282.76342773 C110.25388499 276.30321807 103.36912179 269.85493846 96.48681641 263.40405273 C96.48317078 264.47321426 96.47952515 265.54237579 96.47576904 266.64393616 C96.4386354 276.77886494 96.38066458 286.91349503 96.30291367 297.04819584 C96.26360529 302.25707723 96.23133586 307.46579377 96.21582031 312.67480469 C96.20054329 317.71304803 96.16590501 322.75083763 96.11850739 327.78887749 C96.10380652 329.69949815 96.09578197 331.61018364 96.09493256 333.52086067 C96.07712464 353.51445384 92.96687677 369.03119629 78.83447266 384.08374023 C69.00721051 393.79654175 56.94077517 400.38467813 42.87870789 400.60177612 C41.23063134 400.58895782 39.58261328 400.56532855 37.93481445 400.5324707 C36.05344195 400.51335963 34.17206884 400.49430924 32.29069519 400.47531128 C31.30654318 400.46165401 30.32239117 400.44799675 29.30841637 400.43392563 C24.04320242 400.36907943 18.77775545 400.36485201 13.51220703 400.34936523 C6.83611195 400.32582378 0.16146623 400.28476496 -6.51391602 400.18139648 C-11.93252033 400.09907593 -17.34863991 400.07595644 -22.76781273 400.09122086 C-24.82067492 400.08628087 -26.87360962 400.06002876 -28.9258976 400.01122665 C-42.02487478 399.48223047 -42.02487478 399.48223047 -53.06174755 405.60620308 C-55.38193151 408.089133 -57.43278755 410.71632382 -59.51318359 413.40405273 C-60.89458851 414.69291459 -62.30354864 415.95450689 -63.76318359 417.15405273 C-67.20119267 420.08062244 -70.35069537 423.22343604 -73.51708984 426.43920898 C-75.43425536 428.32636017 -77.40893681 430.09090648 -79.45068359 431.84155273 C-82.44120075 434.41070544 -85.24435044 437.0972253 -88.01318359 439.90405273 C-91.39587767 443.33316457 -94.89067065 446.52796461 -98.55224609 449.65405273 C-100.62491485 451.50376509 -102.52890053 453.46121388 -104.45068359 455.46655273 C-111.34311697 462.46795739 -117.71228467 466.52605568 -127.63818359 466.71655273 C-136.15584337 466.72573125 -141.94715399 464.9593012 -148.32568359 459.27905273 C-154.77447181 452.08609662 -156.11121869 443.95412365 -155.90380859 434.58374023 C-155.8981488 433.59906769 -155.89248901 432.61439514 -155.88665771 431.59988403 C-155.8644847 428.49241986 -155.81432544 425.38616116 -155.76318359 422.27905273 C-155.7430939 420.1566737 -155.72484749 418.03427637 -155.70849609 415.91186523 C-155.66468267 410.74213856 -155.59578987 405.57329914 -155.51318359 400.40405273 C-157.36000732 400.42363037 -157.36000732 400.42363037 -159.24414062 400.44360352 C-160.87809052 400.45416026 -162.5120425 400.46439728 -164.14599609 400.47436523 C-164.95528564 400.4837915 -165.7645752 400.49321777 -166.59838867 400.50292969 C-181.19330916 400.56964085 -193.85178899 394.69484275 -204.33349609 384.61499023 C-205.05279297 383.88538086 -205.77208984 383.15577148 -206.51318359 382.40405273 C-207.08810547 381.83944336 -207.66302734 381.27483398 -208.25537109 380.69311523 C-219.53813268 368.70883479 -221.97599728 352.79936275 -221.90136719 337.01342773 C-221.90544339 335.61242262 -221.9107911 334.21142074 -221.91729736 332.8104248 C-221.93085236 329.04177303 -221.92572183 325.27337051 -221.91616011 321.50471497 C-221.90850161 317.53853746 -221.91562614 313.57237962 -221.9203186 309.60620117 C-221.92575829 302.94893611 -221.91863172 296.29177128 -221.90429688 289.63452148 C-221.88797378 281.96592551 -221.89326356 274.29756892 -221.90977609 266.62897873 C-221.92344215 260.01457055 -221.92528573 253.40023394 -221.91746008 246.78581619 C-221.91281157 242.84858534 -221.91208014 238.91146657 -221.92206955 234.97424316 C-221.93081199 231.27059364 -221.92458649 227.56724918 -221.90738678 223.8636322 C-221.90160525 221.87649949 -221.91037492 219.8893406 -221.91976929 217.90222168 C-221.79927756 200.65641285 -216.3649829 186.44168049 -204.31005859 173.91186523 C-191.6839659 162.5907039 -177.07804538 158.22646946 -160.46875 158.29052734 C-159.47300964 158.29038132 -158.47726929 158.29023529 -157.45135498 158.29008484 C-154.1724629 158.29077941 -150.8936282 158.29855046 -147.61474609 158.30639648 C-145.33645661 158.30826228 -143.05816673 158.30968542 -140.77987671 158.3106842 C-134.79253017 158.31449663 -128.80520802 158.32431604 -122.81787109 158.33538818 C-116.7045932 158.34562971 -110.59131135 158.3501877 -104.47802734 158.35522461 C-92.4897354 158.36593945 -80.50146153 158.38300057 -68.51318359 158.40405273 C-68.51687077 157.85612281 -68.52055794 157.30819288 -68.52435684 156.74365902 C-68.61311229 143.34440917 -68.67883196 129.94521158 -68.72043228 116.54572964 C-68.74123191 110.06553056 -68.76940962 103.58554499 -68.81494141 97.10546875 C-68.85867176 90.84197477 -68.88237792 84.57868509 -68.89269257 78.31505013 C-68.90003535 75.93545381 -68.9143729 73.5558676 -68.93610382 71.17635918 C-69.12074792 50.10385714 -67.54060502 32.80914508 -52.45068359 16.65405273 C-36.95086769 1.94092159 -20.57468476 -0.04874335 0 0 Z M-31.51318359 38.40405273 C-35.80384875 44.40537524 -38.6288263 49.52551808 -38.66035461 56.98123169 C-38.66750992 58.14191666 -38.67466522 59.30260162 -38.68203735 60.49845886 C-38.68472626 61.77328629 -38.68741516 63.04811371 -38.69018555 64.36157227 C-38.69645173 65.71685459 -38.70309867 67.0721352 -38.71009827 68.42741394 C-38.73112856 72.88055223 -38.74150198 77.33369081 -38.75146484 81.78686523 C-38.75551325 83.32175591 -38.7596302 84.8566464 -38.76381493 86.39153671 C-38.78286698 93.60555062 -38.79709609 100.81955431 -38.8054269 108.03358853 C-38.81518965 116.34962328 -38.84148373 124.66539117 -38.88192779 132.98133194 C-38.91214097 139.41545237 -38.92690082 145.84949656 -38.93020791 152.28368652 C-38.93255314 156.1232264 -38.94144385 159.96248122 -38.96666908 163.80194473 C-38.99004527 167.41848908 -38.99414521 171.03456263 -38.9839077 174.6511631 C-38.98318061 176.59964165 -39.00220613 178.5480968 -39.02197266 180.49647522 C-38.96094523 190.84613378 -36.5040546 198.05866618 -29.44677734 205.67749023 C-24.31376333 210.2609088 -18.12474964 212.52348398 -11.28288269 212.53535461 C-10.02768578 212.54136688 -10.02768578 212.54136688 -8.74713135 212.54750061 C-7.3825882 212.54670753 -7.3825882 212.54670753 -5.99047852 212.54589844 C-5.0257814 212.54937286 -4.06108429 212.55284729 -3.06715393 212.556427 C-0.97298445 212.56377588 1.12119279 212.56912589 3.21537209 212.57271767 C6.53196641 212.57988938 9.84841333 212.59556124 13.16496277 212.61405945 C22.59457383 212.6664969 32.02410366 212.71450679 41.45385742 212.72998047 C47.22282088 212.74006756 52.99141259 212.76940983 58.76022911 212.81130028 C60.95658238 212.82360347 63.15298817 212.82873279 65.34937477 212.82650185 C68.42529539 212.82414622 71.50015115 212.84633575 74.57592773 212.87402344 C75.47955048 212.86742203 76.38317322 212.86082062 77.31417847 212.85401917 C84.22199372 212.95591029 88.37968748 214.66910259 93.63916016 219.29858398 C94.22826172 219.93151367 94.81736328 220.56444336 95.42431641 221.21655273 C98.01785288 223.92002717 100.63936023 226.46894834 103.48681641 228.90405273 C106.99823288 231.92167627 110.23989043 235.13764354 113.48681641 238.43530273 C115.42572643 240.34391728 117.42381192 242.13115825 119.48681641 243.90405273 C122.27578034 246.30081861 124.90672425 248.78364664 127.48681641 251.40405273 C130.66021541 254.62693944 133.97046721 257.59703488 137.40478516 260.53686523 C140.56120427 263.36757505 143.47833812 266.42397021 146.40869141 269.48608398 C148.39022554 271.3149059 150.07383053 272.26843732 152.48681641 273.40405273 C152.49268265 272.80572128 152.49854889 272.20738983 152.5045929 271.59092712 C152.56869108 265.3448167 152.65315291 259.09921369 152.74926758 252.85351562 C152.78245389 250.52480778 152.81050529 248.19602072 152.83325195 245.8671875 C152.8669131 242.51324817 152.9192364 239.16003067 152.97509766 235.80639648 C152.98148758 234.7707103 152.9878775 233.73502411 152.99446106 232.66795349 C153.11234246 226.8287906 153.66191516 222.5546811 156.48681641 217.40405273 C160.75643507 213.40128524 164.75516732 213.27864227 170.42822266 213.22827148 C171.83123202 213.20504728 173.23422682 213.18092894 174.63720703 213.15600586 C176.83334748 213.121131 179.02896021 213.09167835 181.2253418 213.078125 C193.1623339 212.99018388 202.77812894 211.76023629 211.79541016 203.27124023 C216.85321802 197.68779414 218.60259118 192.12433099 218.63398743 184.70661926 C218.64114273 183.54455963 218.64829803 182.3825 218.65567017 181.18522644 C218.65835907 179.91399429 218.66104797 178.64276215 218.66381836 177.33300781 C218.67008653 175.97757799 218.67673364 174.62214988 218.68373108 173.26672363 C218.70473405 168.8190225 218.71513081 164.37132118 218.72509766 159.92358398 C218.7291468 158.38961965 218.73326376 156.85565549 218.73744774 155.32169151 C218.75649215 148.1130204 218.77072403 140.90435947 218.77905971 133.69566804 C218.78882585 125.38813337 218.81513206 117.08086559 218.8555606 108.77342492 C218.88577273 102.34353058 218.90053345 95.91371253 218.90384072 89.48374861 C218.90618564 85.64757696 218.91507261 81.81169067 218.9403019 77.97559547 C218.96367696 74.3631416 218.96777847 70.75115905 218.95754051 67.13864899 C218.95681345 65.19256538 218.97583864 63.2465052 218.99560547 61.30052185 C218.93878062 51.67540561 216.91663988 44.18477561 210.32666016 36.97436523 C202.83792543 30.5827063 194.61954136 29.25308404 185.09431458 29.26361084 C184.25180277 29.26063972 183.40929097 29.2576686 182.5412485 29.25460744 C179.71946482 29.24593922 176.89772367 29.24441377 174.07592773 29.24291992 C172.05203155 29.2382904 170.02813624 29.23326555 168.00424194 29.22787476 C162.50610837 29.21476115 157.00798701 29.20830774 151.50984025 29.2038641 C148.07327183 29.20093151 144.63670674 29.19682633 141.20014 29.19235992 C130.44346247 29.17868732 119.68679255 29.16901967 108.93010694 29.16515803 C96.52152783 29.16067866 84.11305896 29.14313532 71.70451337 29.11415744 C62.10773043 29.09252547 52.51097846 29.08245293 42.9141714 29.08111691 C37.18502004 29.08006992 31.45597234 29.07418445 25.72684669 29.0562973 C20.33501784 29.03979066 14.94337027 29.03767378 9.55152512 29.04643631 C7.57710852 29.04720531 5.60268208 29.04288212 3.62829018 29.03297806 C-15.55629661 28.73101153 -15.55629661 28.73101153 -31.51318359 38.40405273 Z M-182.82568359 195.46655273 C-183.62619141 196.1587793 -184.42669922 196.85100586 -185.25146484 197.56420898 C-191.65627472 205.60617234 -192.09522168 214.20764869 -192.03076172 224.15625 C-192.03619374 225.51257067 -192.04332243 226.86888543 -192.05200195 228.22518921 C-192.07010858 231.88019299 -192.06322137 235.53474096 -192.05048561 239.18975186 C-192.04029375 243.03056055 -192.04976815 246.87133258 -192.05603027 250.71214294 C-192.06328793 257.15858909 -192.05376776 263.60485136 -192.03466797 270.05126953 C-192.01289347 277.48592018 -192.01996215 284.92013208 -192.04197359 292.35477215 C-192.06017047 298.75934571 -192.06266533 305.16378779 -192.05221891 311.56837887 C-192.04600862 315.38429285 -192.04508007 319.2000011 -192.05836487 323.01590157 C-192.06998594 326.60388058 -192.06178515 330.19129794 -192.03878784 333.77921677 C-192.03104383 335.7108815 -192.04280242 337.64259417 -192.05529785 339.57423401 C-191.96279562 349.14887592 -189.92347137 356.67260022 -183.34521484 363.83374023 C-175.81206683 370.29072424 -167.33448338 371.48516639 -157.69677734 371.57983398 C-156.43800781 371.60368164 -155.17923828 371.6275293 -153.88232422 371.65209961 C-151.2574909 371.69512966 -148.63243778 371.72634654 -146.00732422 371.74584961 C-144.12110352 371.78742188 -144.12110352 371.78742188 -142.19677734 371.82983398 C-140.48832642 371.85170776 -140.48832642 371.85170776 -138.74536133 371.87402344 C-133.67086916 372.70616503 -130.68281817 374.79857472 -127.67016602 378.93383789 C-126.00177715 383.93794832 -126.03299581 388.68350981 -126.00146484 393.92749023 C-125.98351364 395.0288028 -125.96556244 396.13011536 -125.94706726 397.26480103 C-125.89304601 400.76951309 -125.85909395 404.27408957 -125.82568359 407.77905273 C-125.79250339 410.16058198 -125.75801309 412.54209336 -125.72216797 414.92358398 C-125.63732416 420.75028531 -125.56893956 426.57700436 -125.51318359 432.40405273 C-124.24745047 431.47317384 -122.98428137 430.5388081 -121.72216797 429.60302734 C-121.01846069 429.08308701 -120.31475342 428.56314667 -119.58972168 428.02745056 C-116.46842041 425.58727682 -113.75535315 422.81712183 -111.01318359 419.96655273 C-106.94569399 415.81485979 -102.83787687 411.83929661 -98.40380859 408.07592773 C-95.37079252 405.39383914 -92.57809926 402.47672024 -89.73583984 399.59545898 C-87.0861692 396.98304206 -84.30145557 394.57102653 -81.47802734 392.15014648 C-79.40498036 390.30789598 -77.45882558 388.38003611 -75.51318359 386.40405273 C-61.37902871 372.10328699 -61.37902871 372.10328699 -51.84642029 371.98954773 C-50.97308548 371.99412491 -50.09975067 371.99870209 -49.19995117 372.00341797 C-48.26918762 371.9964389 -47.33842407 371.98945984 -46.37945557 371.98226929 C-43.30544979 371.96229188 -40.23177979 371.96279268 -37.15771484 371.96264648 C-35.01404417 371.95087046 -32.8703817 371.93750569 -30.72673035 371.92262268 C-25.08023714 371.88641876 -19.43381644 371.86623551 -13.78723145 371.85107422 C-4.76769069 371.82626468 4.25168955 371.78634839 13.27108192 371.72917366 C16.41173231 371.71293374 19.55222981 371.7090743 22.69291687 371.7061615 C24.63748429 371.69637572 26.58204938 371.68611091 28.52661133 371.67529297 C29.38982498 371.67784592 30.25303864 371.68039886 31.14241028 371.68302917 C41.80556657 371.59452959 50.53474436 369.90445804 58.48681641 362.40405273 C62.49906068 357.03269123 65.61506131 351.79695253 65.60707092 344.9811554 C65.60844559 344.07671692 65.60982025 343.17227844 65.61123657 342.24043274 C65.6076413 341.25068954 65.60404602 340.26094635 65.6003418 339.24121094 C65.60056084 337.67510574 65.60056084 337.67510574 65.6007843 336.07736206 C65.60008658 332.61983171 65.59230071 329.16235495 65.58447266 325.70483398 C65.58260798 323.31015553 65.58118431 320.9154767 65.58018494 318.52079773 C65.57636369 312.21282908 65.56653672 305.90488339 65.55548096 299.59692383 C65.54525842 293.16219392 65.54068551 286.7274603 65.53564453 280.29272461 C65.52491413 267.66315751 65.50803415 255.03360634 65.48681641 242.40405273 C64.00129524 242.39192245 64.00129524 242.39192245 62.48576355 242.37954712 C53.11489616 242.30178382 43.74416859 242.2139705 34.37348461 242.11652565 C29.55687989 242.06675561 24.74029508 242.02042513 19.92358398 241.98217773 C15.26801692 241.94507965 10.61262467 241.89865594 5.95720863 241.84598923 C4.18840947 241.8275747 2.41957303 241.81241997 0.65071678 241.80070877 C-19.2793732 241.66413307 -37.72558533 239.16717633 -52.51318359 224.40405273 C-60.23262072 215.62562158 -64.56071315 205.8920784 -67.11474609 194.59155273 C-67.37852051 193.43010742 -67.64229492 192.26866211 -67.9140625 191.07202148 C-68.11177246 190.1915918 -68.30948242 189.31116211 -68.51318359 188.40405273 C-81.39609301 188.334437 -94.27895742 188.2811826 -107.16201687 188.24861622 C-113.14461872 188.23298329 -119.12709154 188.21178818 -125.10961914 188.17773438 C-130.88678818 188.14505659 -136.66383337 188.12718187 -142.44108772 188.11942101 C-144.64141857 188.11389263 -146.8417429 188.10309711 -149.0420208 188.08686256 C-152.13208356 188.06497665 -155.22163935 188.0620905 -158.31176758 188.06347656 C-159.21448395 188.05269073 -160.11720032 188.04190491 -161.04727173 188.03079224 C-169.36487764 188.07096822 -176.52669268 189.78612067 -182.82568359 195.46655273 Z " fill="#000000" transform="translate(242.51318359375,22.595947265625)"/>
<path d="M0 0 C1.03039398 -0.00571014 2.06078796 -0.01142029 3.12240601 -0.01730347 C4.25233475 -0.01842133 5.38226349 -0.01953918 6.5464325 -0.02069092 C7.736922 -0.02565582 8.9274115 -0.03062073 10.15397644 -0.03573608 C13.4206322 -0.04784488 16.68725217 -0.05530299 19.95392632 -0.05974674 C21.99576801 -0.06267942 24.03760411 -0.06678461 26.07944298 -0.07125092 C32.47065845 -0.08492341 38.86186112 -0.0945911 45.2530902 -0.09845281 C52.62561691 -0.10293215 59.99795808 -0.12047516 67.37042838 -0.1494534 C73.07245013 -0.17108611 78.77441975 -0.18115794 84.47648209 -0.18249393 C87.8804848 -0.18354089 91.28431305 -0.18942516 94.68827248 -0.20731354 C98.48748995 -0.22435125 102.28625491 -0.22249899 106.085495 -0.21600342 C107.77127907 -0.22982559 107.77127907 -0.22982559 109.49111938 -0.243927 C115.06069605 -0.21406925 119.25196524 -0.10773387 124.01005554 3.14044189 C128.24467022 7.83285275 129.31418614 10.6434018 129.22489929 16.82403564 C128.79199401 21.49154168 126.90772875 24.28880321 123.57255554 27.45294189 C119.72618427 29.9859181 116.53692415 30.26548352 111.98924255 30.28761292 C110.47116753 30.29834587 110.47116753 30.29834587 108.92242432 30.30929565 C107.81793442 30.31198456 106.71344452 30.31467346 105.57548523 30.31744385 C103.82361153 30.32730064 103.82361153 30.32730064 102.03634644 30.33735657 C98.16820716 30.3570804 94.30010667 30.36874973 90.43193054 30.37872314 C89.09729746 30.38277274 87.76266459 30.38688973 86.42803192 30.39107323 C80.15642101 30.41011336 73.88482179 30.42434669 67.61318755 30.4326852 C60.38722463 30.44245269 53.16156842 30.46876404 45.93571353 30.50918609 C40.34149637 30.53940071 34.74736687 30.55415912 29.15306973 30.55746621 C25.81595098 30.55981071 22.47942017 30.57068143 19.14234161 30.59392738 C15.41538077 30.61827711 11.68922004 30.61736083 7.96220398 30.6104126 C6.31761452 30.62962769 6.31761452 30.62962769 4.63980103 30.64923096 C-2.02854879 30.60398276 -6.29894451 29.68168182 -11.98994446 26.14044189 C-15.64392017 22.25072581 -16.29224337 18.49493145 -16.20478821 13.19903564 C-15.73123612 8.66154567 -13.76719744 5.8594009 -10.48994446 2.82794189 C-6.89683127 0.40259049 -4.23107023 0.01403927 0 0 Z " fill="#000000" transform="translate(275.9899444580078,98.85955810546875)"/>
<path d="M0 0 C1.21204102 -0.00540298 2.42408203 -0.01080597 3.67285156 -0.01637268 C6.98507396 -0.02671515 10.29629251 -0.01918435 13.60842633 -0.00266147 C17.08009542 0.01122596 20.55173537 0.00472488 24.02342224 0.00120544 C29.85147471 -0.00149342 35.67932085 0.01195207 41.50732422 0.03515625 C48.23983054 0.0617766 54.97199223 0.06350801 61.70453316 0.05176789 C68.18975952 0.04098001 74.67486155 0.04718424 81.16007805 0.06132317 C83.91636033 0.06707301 86.67255133 0.06700825 89.42883492 0.06225777 C93.27820959 0.05658907 97.1272409 0.07582769 100.9765625 0.09765625 C102.688722 0.09090378 102.688722 0.09090378 104.43547058 0.08401489 C105.4854422 0.09391953 106.53541382 0.10382416 107.61720276 0.11402893 C108.52659387 0.11645883 109.43598497 0.11888872 110.37293339 0.12139225 C114.73958247 0.77248485 117.3089994 2.80176543 120.17358398 6.06420898 C123.37220978 10.51943777 123.55866513 14.11233986 122.92358398 19.50170898 C121.20472496 24.38737894 118.54822621 27.21969718 113.92358398 29.50170898 C111.33890533 29.87923241 111.33890533 29.87923241 108.5345459 29.88265991 C106.93217827 29.89534912 106.93217827 29.89534912 105.29743958 29.90829468 C104.13572739 29.90222198 102.9740152 29.89614929 101.77709961 29.88989258 C99.92999641 29.89777802 99.92999641 29.89777802 98.045578 29.90582275 C94.67561621 29.91675351 91.306208 29.91420663 87.93627739 29.9046855 C84.40587507 29.8970781 80.87549604 29.9041375 77.34509277 29.90884399 C71.4169491 29.91429842 65.48891764 29.90711822 59.56079102 29.89282227 C52.71186979 29.87649626 45.86321651 29.881785 39.01430178 29.89830148 C33.12879792 29.91192534 27.24337462 29.91383164 21.35786009 29.90598547 C17.84495878 29.90131387 14.33218333 29.90066989 10.81929016 29.91059494 C6.90277734 29.92088786 2.98656348 29.90661242 -0.92993164 29.88989258 C-2.67249992 29.89900162 -2.67249992 29.89900162 -4.45027161 29.90829468 C-5.51851669 29.89983521 -6.58676178 29.89137573 -7.68737793 29.88265991 C-8.61281654 29.88152884 -9.53825516 29.88039776 -10.49173737 29.87923241 C-13.6521981 29.41760908 -15.50032427 28.36759914 -18.07641602 26.50170898 C-21.48473273 21.89587559 -22.75240214 18.38853703 -22.45922852 12.64233398 C-21.63432206 8.02959174 -19.07185365 5.39024896 -15.68275452 2.36509705 C-10.93728524 -0.67631799 -5.44224355 -0.04617757 0 0 Z " fill="#000000" transform="translate(282.076416015625,156.498291015625)"/>
<path d="M0 0 C0.79853394 -0.00287018 1.59706787 -0.00574036 2.4197998 -0.00869751 C4.10067457 -0.01073033 5.78157342 -0.00525539 7.46240234 0.00732422 C10.02365411 0.02338985 12.5833281 0.00744972 15.14453125 -0.01171875 C16.78385762 -0.00973618 18.42318302 -0.00589221 20.0625 0 C21.20180969 -0.00910904 21.20180969 -0.00910904 22.36413574 -0.0184021 C27.13688278 0.0442007 30.37942819 0.80858749 34.53125 3.3984375 C38.59759812 7.79448952 39.91579529 11.22917346 39.8046875 17.2734375 C39.34107404 20.8763764 38.03245239 23.76559288 35.53125 26.3984375 C30.24300542 29.95131964 26.56719106 31.00007587 20.25390625 30.9296875 C19.48372665 30.9335144 18.71354706 30.93734131 17.92002869 30.94128418 C16.30059492 30.94399077 14.6811165 30.93671775 13.06176758 30.91992188 C10.60332214 30.89852083 8.14780803 30.91974817 5.68945312 30.9453125 C4.10676447 30.94266843 2.52407762 30.93754179 0.94140625 30.9296875 C-0.14490334 30.94183289 -0.14490334 30.94183289 -1.25315857 30.95422363 C-6.71737558 30.85545443 -10.8611014 29.34160039 -15.46875 26.3984375 C-18.21334089 23.43833601 -19.35639621 20.1010296 -19.62109375 16.08984375 C-19.28277995 10.94573898 -17.93400381 7.33196885 -14.46875 3.3984375 C-9.54403743 0.31175712 -5.626343 -0.04498389 0 0 Z " fill="#000000" transform="translate(391.46875,372.6015625)"/>
<path d="M0 0 C2.19472639 -0.00967266 4.3885022 -0.0407042 6.58300781 -0.07226562 C13.71183192 -0.12679042 20.00556328 -0.14677461 26.46582031 3.24023438 C31.23872472 8.25790312 31.82266172 11.72614179 31.74316406 18.47460938 C31.35180077 22.377218 30.15202228 24.41265335 27.46582031 27.24023438 C22.48065302 30.35736531 18.47434233 30.69522711 12.77832031 30.67382812 C11.54722534 30.6816909 11.54722534 30.6816909 10.29125977 30.68971252 C8.56332527 30.69610992 6.83534708 30.6948254 5.10742188 30.6862793 C2.47349148 30.67775919 -0.15827507 30.70657637 -2.79199219 30.73828125 C-4.47688738 30.73989333 -6.16178638 30.7393156 -7.84667969 30.73632812 C-9.01880005 30.75317909 -9.01880005 30.75317909 -10.21459961 30.77037048 C-15.44202849 30.70418926 -18.3656532 29.65294202 -22.53417969 26.24023438 C-26.47020641 21.88988906 -27.1687102 18.32515824 -26.92089844 12.64257812 C-26.15502338 7.88486947 -23.84126615 5.18787206 -20.03417969 2.42773438 C-13.67335423 -0.59365772 -6.89694306 0.01838368 0 0 Z " fill="#000000" transform="translate(110.5341796875,112.759765625)"/>
<path d="M0 0 C4.47663127 2.15837579 6.98940477 4.44970553 9 9 C10.46757639 14.66065179 9.83103607 17.90413507 7 23 C1.81326264 28.81926631 1.81326264 28.81926631 -2.390625 29.23828125 C-8.4451031 29.395433 -12.33908985 29.31134189 -17 25 C-19.97579122 21.20330086 -20.83716445 17.80364862 -21 13 C-20.0724788 8.57771143 -18.72982117 5.69422014 -15.4375 2.5625 C-10.40192373 -0.66543351 -5.89791521 -0.59978799 0 0 Z " fill="#000000" transform="translate(133,287)"/>
<path d="M0 0 C3.95316505 3.37181725 6.23954857 5.98432324 7.0625 11.1875 C7.45647854 16.82514532 5.75989269 20.87106493 2.125 25.1875 C-1.69420685 28.29060556 -5.65665769 28.15160492 -10.37109375 28.08984375 C-15.41915492 27.53069813 -18.01558647 24.78499426 -21.25 21.125 C-23.36181001 16.82015653 -23.67731942 13.51998641 -22.875 8.8125 C-21.53642514 4.90957668 -19.60348044 2.35018795 -16.25 -0.125 C-10.75198115 -1.85585779 -5.38968674 -2.22617496 0 0 Z " fill="#000000" transform="translate(250.875,288.1875)"/>
<path d="M0 0 C4.0676451 3.86426284 5.6479244 7.31701673 5.9375 12.875 C5.75751955 18.2204194 3.35137256 21.22740784 -0.0625 25.1875 C-3.50476891 28.03111345 -7.7592979 27.70561314 -11.9921875 27.65625 C-15.70729058 27.23960293 -17.75472199 25.85244601 -20.5 23.375 C-23.47669286 19.57715049 -24.25210871 16.16756501 -24.5 11.375 C-23.54534081 5.83797672 -21.82160885 2.95877319 -17.5 -0.625 C-11.66651053 -2.56949649 -5.5824122 -2.59183423 0 0 Z " fill="#000000" transform="translate(194.5,288.625)"/>
</svg>
