<?xml version="1.0" encoding="UTF-8"?>
<svg version="1.1" xmlns="http://www.w3.org/2000/svg" width="512" height="512">
<path d="M0 0 C0.99660645 0.20399414 1.99321289 0.40798828 3.02001953 0.61816406 C47.1833138 9.96079167 87.07786175 29.17689165 120.49609375 59.71875 C122.16076737 61.23539492 123.84054101 62.73563528 125.53515625 64.21875 C169.02753978 102.40062612 196.75039105 162.75582095 201 220 C201.34741777 227.22545103 201.34138081 234.45540488 201.3125 241.6875 C201.31034485 242.65999695 201.3081897 243.6324939 201.30596924 244.63446045 C201.25617547 258.63341583 200.90220485 272.25979308 198 286 C197.79600586 287.01578125 197.59201172 288.0315625 197.38183594 289.078125 C188.411184 333.16097934 168.6901426 373.21424684 138.2890625 406.48828125 C136.74739771 408.1799032 135.22154556 409.88605651 133.7109375 411.60546875 C129.09634791 416.84643734 124.3516423 421.52643372 119 426 C118.07832031 426.80953125 117.15664063 427.6190625 116.20703125 428.453125 C83.31347796 457.22189789 42.8438923 475.93600276 0 484 C-0.83063965 484.16371094 -1.6612793 484.32742188 -2.51708984 484.49609375 C-29.55417099 489.61879771 -61.04377248 489.50904907 -88 484 C-89.47098145 483.70198486 -89.47098145 483.70198486 -90.97167969 483.39794922 C-130.63761529 475.09534275 -167.76481914 459.09141817 -199 433 C-199.87132568 432.28094482 -199.87132568 432.28094482 -200.76025391 431.54736328 C-213.07526841 421.36153318 -224.09626919 410.57083722 -234 398 C-234.65355469 397.21367187 -235.30710938 396.42734375 -235.98046875 395.6171875 C-241.90077845 388.45609433 -247.02546643 380.8349851 -252 373 C-252.62310059 372.01966797 -252.62310059 372.01966797 -253.25878906 371.01953125 C-274.68012582 336.91957689 -274.68012582 336.91957689 -273 320 C-271.72114743 316.00267224 -269.48650255 313.44016897 -266.375 310.625 C-261.30041365 308.18168065 -256.28746858 307.0795088 -250.75390625 308.62890625 C-242.76419641 312.23862393 -239.38051381 318.68482249 -236.1875 326.4375 C-219.84714257 364.45265586 -192.94894755 396.72108857 -158 419 C-157.32743164 419.42909668 -156.65486328 419.85819336 -155.96191406 420.30029297 C-109.02469916 449.85708471 -52.22900109 458.85635862 1.86767578 447.45898438 C38.00966606 439.24583211 70.71616667 421.96817428 97.89453125 396.91796875 C99.61685185 395.34902735 101.36108928 393.88041241 103.1875 392.4375 C106.85904348 389.25549565 109.86515024 385.70153414 113 382 C113.8146875 381.08476562 114.629375 380.16953125 115.46875 379.2265625 C143.12243687 347.90762462 159.73516353 308.28308007 165 267 C165.0942627 266.26305908 165.18852539 265.52611816 165.28564453 264.7668457 C170.11688513 222.43083124 161.19124747 179.34883461 141 142 C140.68063477 141.4013916 140.36126953 140.8027832 140.03222656 140.18603516 C132.32291212 125.82792618 122.71872445 113.22142407 112 101 C111.20335937 100.07960938 110.40671875 99.15921875 109.5859375 98.2109375 C105.02700566 93.02534836 100.3214474 88.38934674 95 84 C93.86957232 83.03411082 92.73938654 82.06793849 91.609375 81.1015625 C77.07063965 68.82085648 61.26561756 58.97193491 44 51 C42.90042969 50.48050781 41.80085938 49.96101563 40.66796875 49.42578125 C23.90951818 41.85167726 6.13019078 36.90431419 -12 34 C-13.07217773 33.82428467 -13.07217773 33.82428467 -14.16601562 33.64501953 C-52.52561033 27.64129692 -92.48161883 33.85695608 -128 49 C-128.7415332 49.31163086 -129.48306641 49.62326172 -130.24707031 49.94433594 C-159.99428876 62.61270972 -186.93998277 83.76001122 -207 109 C-207.78375 109.95519531 -208.5675 110.91039063 -209.375 111.89453125 C-221.34530571 126.8382302 -230.0530389 143.53285234 -238.01928711 160.86914062 C-241.16315799 167.70003559 -243.82074601 171.95680916 -250.8125 175.375 C-256.65685651 176.52095226 -261.8145012 176.12910598 -266.875 172.8125 C-270.7107793 169.67089886 -272.73374301 166.67213764 -273.23779297 161.61352539 C-273.41216965 154.56654382 -272.14520443 149.41925621 -269.1875 143.0625 C-268.58071411 141.71297241 -268.58071411 141.71297241 -267.96166992 140.33618164 C-257.68182964 117.9069053 -244.49844061 97.36390306 -228 79 C-227.29399658 78.21157715 -227.29399658 78.21157715 -226.57373047 77.40722656 C-223.42379631 73.89835873 -220.22853772 70.43666672 -217 67 C-216.38640625 66.34386719 -215.7728125 65.68773438 -215.140625 65.01171875 C-210.66426679 60.37549061 -205.73592521 56.32625924 -200.68408203 52.33349609 C-199.50669171 51.40121051 -198.33351649 50.46358799 -197.16357422 49.52197266 C-165.42338896 24.03279858 -127.99917951 7.42183884 -88 0 C-87.17371094 -0.16226074 -86.34742188 -0.32452148 -85.49609375 -0.49169922 C-58.46454166 -5.61563779 -26.95037452 -5.52499913 0 0 Z " fill="#000000" transform="translate(311,14)"/>
<path d="M0 0 C0.88042969 -0.0515625 1.76085937 -0.103125 2.66796875 -0.15625 C11.23307303 1.63125002 17.81780126 9.07439873 23.75708008 15.07226562 C24.60052979 15.91206467 25.44397949 16.75186371 26.31298828 17.61711121 C28.60131387 19.89876883 30.88286858 22.18692596 33.16115022 24.47860527 C35.5580636 26.88692847 37.96278223 29.2874372 40.36637878 31.68908691 C44.39685809 35.71868666 48.42135055 39.75418858 52.44213867 43.79345703 C57.0807146 48.45323132 61.72809322 53.10407938 66.38039285 57.75014925 C70.87285318 62.23690343 75.35960355 66.72932438 79.84360313 71.22453308 C81.74486961 73.13042531 83.6479842 75.03444284 85.55262184 76.93696594 C88.2116832 79.59565602 90.8641464 82.26075725 93.51489258 84.92773438 C94.29988632 85.7102507 95.08488007 86.49276703 95.8936615 87.29899597 C101.9465048 93.41102745 106.40436172 98.16930317 106.89453125 107.05859375 C106.41582205 121.30589142 85.78985669 135.70546282 76.49609375 145.01953125 C75.18299571 146.33687036 75.18299571 146.33687036 73.84337044 147.68082237 C69.69365608 151.84391934 65.54222028 156.00528385 61.38775486 160.16363984 C56.62056748 164.93531939 51.86002052 169.7134969 47.10504764 174.49734765 C42.95916645 178.66751899 38.80499201 182.82934978 34.6478138 186.98825645 C32.89072435 188.74836398 31.13612601 190.51096213 29.38412285 192.27613258 C26.93427624 194.74308919 24.47507778 197.20034648 22.01342773 199.65551758 C21.29891953 200.37924057 20.58441132 201.10296356 19.84825134 201.84861755 C14.96321344 206.6936201 9.77564299 211.59444313 2.90625 213.1640625 C-3.68590983 213.06478298 -8.18466484 211.92511218 -13.1875 207.5 C-16.9240183 203.28135031 -17.30789662 197.96944661 -17.1875 192.5 C-14.12581958 181.40140849 -2.85858728 173.03616058 5.08984375 165.125 C6.26833183 163.94838076 7.44659653 162.77153775 8.62464905 161.59448242 C11.70152808 158.52139193 14.7813999 155.45131845 17.86193848 152.38189697 C21.01461573 149.23951326 24.16440669 146.09423929 27.31445312 142.94921875 C33.47767254 136.79667193 39.64406165 130.64731438 45.8125 124.5 C44.91451441 124.49853479 44.91451441 124.49853479 43.99838769 124.49703997 C8.52525365 124.43878106 -26.94781495 124.36499424 -62.42087279 124.27101372 C-66.67918182 124.25974541 -70.93749119 124.24860699 -75.19580078 124.23754883 C-76.04356151 124.23534514 -76.89132225 124.23314146 -77.7647727 124.230871 C-91.49561195 124.19548862 -105.22645114 124.1706298 -118.9573191 124.14965298 C-133.04411918 124.12789842 -147.13086004 124.09485129 -161.21760976 124.05129844 C-169.91145376 124.02477577 -178.60522395 124.00708494 -187.2991064 124.00065396 C-193.25902264 123.99540196 -199.21884597 123.97919131 -205.17871244 123.95433434 C-208.61840366 123.94031285 -212.05792856 123.93115091 -215.49765015 123.93499184 C-219.22670741 123.9366374 -222.95524805 123.92000553 -226.68423462 123.89872742 C-227.77178689 123.90357499 -228.85933915 123.90842257 -229.97984755 123.91341704 C-236.23268537 123.8543595 -241.04383376 123.4345863 -245.83203125 118.96484375 C-250.5950258 112.73631242 -250.92199925 108.2938532 -250.1875 100.5 C-248.02812362 96.02129344 -245.25797061 93.31801812 -241.1875 90.5 C-238.27445227 89.52898409 -236.41443807 89.3706869 -233.38302326 89.3613348 C-232.38776577 89.35586036 -231.39250828 89.35038591 -230.36709148 89.34474558 C-228.72265529 89.34327842 -228.72265529 89.34327842 -227.04499817 89.34178162 C-225.88270602 89.33684364 -224.72041388 89.33190566 -223.52290076 89.32681805 C-220.29162994 89.31408967 -217.06038246 89.3058147 -213.82909405 89.29939139 C-210.34648408 89.29139336 -206.86389607 89.27769353 -203.38130188 89.26467896 C-197.34576415 89.24290773 -191.31022422 89.22476561 -185.27466774 89.20907402 C-176.54821924 89.18638128 -167.82179505 89.15823762 -159.09536716 89.12875474 C-144.93801917 89.08107153 -130.78066125 89.03780932 -116.62329102 88.99731445 C-102.86905138 88.95796324 -89.11482057 88.91653791 -75.3605957 88.87231445 C-74.08931784 88.86822804 -74.08931784 88.86822804 -72.7923576 88.86405908 C-68.54069316 88.85037967 -64.28902885 88.83665938 -60.0373646 88.82291877 C-24.7540947 88.70894254 10.52919391 88.60213572 45.8125 88.5 C44.73588104 87.43004288 44.73588104 87.43004288 43.63751221 86.33847046 C36.86406516 79.60562024 30.09594588 72.86745468 23.33296585 66.12409019 C19.85613863 62.6576866 16.37748123 59.19316258 12.89453125 55.73291016 C9.53146333 52.39162109 6.17334777 49.04542708 2.81856537 45.69581985 C1.53974196 44.42068314 0.25916358 43.1473039 -1.02321625 41.87574387 C-2.82325803 40.09028382 -4.61687843 38.29859669 -6.40917969 36.50537109 C-6.93714142 35.98459991 -7.46510315 35.46382874 -8.00906372 34.92727661 C-13.53410215 29.37145896 -16.80333218 24.78764068 -17.28515625 16.9609375 C-17.08065359 11.80747044 -15.05382508 8.49960586 -11.75 4.6875 C-7.90926573 1.4088244 -5.06697481 0.17547965 0 0 Z " fill="#000000" transform="translate(250.1875,149.5)"/>
</svg>
